# Blender v2.76 (sub 0) OBJ File: ''
# www.blender.org
mtllib arrow.mtl
o Cube
v 1.000000 -1.000000 -1.000000
v 1.000000 -1.000000 1.000000
v -1.000000 -1.000000 1.000000
v -1.000000 -1.000000 -1.000000
v 2.185898 2.833795 -2.020154
v 2.185898 2.833795 -1.753982
v 1.919727 2.833795 -1.753982
v 1.919727 2.833795 -2.020154
vn 0.000000 -1.000000 0.000000
vn 0.000000 1.000000 0.000000
vn 0.955300 -0.295500 0.000000
vn -0.000000 0.583400 0.812200
vn -0.795600 0.605900 -0.000000
vn 0.000000 -0.257100 -0.966400
usemtl Material
s off
f 1//1 2//1 3//1 4//1
f 5//2 8//2 7//2 6//2
f 1//3 5//3 6//3 2//3
f 2//4 6//4 7//4 3//4
f 3//5 7//5 8//5 4//5
f 5//6 1//6 4//6 8//6
