# Blender v2.76 (sub 0) OBJ File: ''
# www.blender.org
mtllib grid.mtl
o Grid
v 0.000000 0.000000 0.000000
v 0.000000 1.600000 0.000000
v 0.000000 3.200000 0.000000
v 1.600000 0.000000 0.000000
v 1.600000 1.600000 0.000000
v 1.600000 3.200000 0.000000
v 3.200000 0.000000 0.000000
v 3.200000 1.600000 0.000000
v 3.200000 3.200000 0.000000
v 4.800000 0.000000 0.000000
v 4.800000 1.600000 0.000000
v 4.800000 3.200000 0.000000
v 6.400000 0.000000 0.000000
v 6.400000 1.600000 0.000000
v 6.400000 3.200000 0.000000
v 8.000000 0.000000 0.000000
v 8.000000 1.600000 0.000000
v 8.000000 3.200000 0.000000
vn 0.000000 0.000000 -1.000000
usemtl None
s off
f 1//1 2//1 5//1 4//1
f 2//1 3//1 6//1 5//1
f 4//1 5//1 8//1 7//1
f 5//1 6//1 9//1 8//1
f 7//1 8//1 11//1 10//1
f 8//1 9//1 12//1 11//1
f 10//1 11//1 14//1 13//1
f 11//1 12//1 15//1 14//1
f 13//1 14//1 17//1 16//1
f 14//1 15//1 18//1 17//1
