# Blender v2.76 (sub 0) OBJ File: ''
# www.blender.org
mtllib hBShape.mtl
o Plane
v 1.000000 -0.000000 1.000000
v 3.000000 -0.000001 1.000000
v 1.000000 0.000000 3.000000
v 3.000000 -0.000001 3.000000
v 1.000000 -0.000000 0.000000
v 3.000000 -0.000001 0.000000
v 0.000000 0.000000 1.000000
v 0.000000 0.000000 0.000000
v 4.000000 -0.000001 1.000000
v 4.000000 -0.000001 0.000000
v 1.000000 0.000000 4.000000
v 3.000000 -0.000000 4.000000
v 0.000000 0.000000 3.000000
v 0.000000 0.000001 4.000000
v 4.000000 -0.000001 3.000000
v 4.000000 -0.000001 4.000000
v 1.000001 2.000000 1.000000
v 3.000001 1.999999 1.000000
v 1.000001 2.000000 3.000000
v 3.000001 2.000000 3.000000
v 1.000001 2.000000 -0.000000
v 3.000001 1.999999 -0.000000
v 0.000001 2.000000 1.000000
v 0.000001 2.000000 -0.000000
v 4.000000 1.999999 1.000000
v 4.000000 1.999999 -0.000000
v 1.000001 2.000000 4.000000
v 3.000001 2.000000 4.000000
v 0.000001 2.000000 3.000000
v 0.000001 2.000001 4.000000
v 4.000000 1.999999 3.000000
v 4.000000 1.999999 4.000000
v 3.000000 1.000000 4.000000
v 4.000000 0.999999 4.000000
v 0.000000 1.000000 -0.000000
v 0.000000 1.000000 1.000000
v 1.000000 1.000000 1.000000
v 1.000000 1.000000 3.000000
v 0.000000 1.000000 3.000000
v 0.000000 1.000001 4.000000
v 1.000000 1.000000 -0.000000
v 3.000000 0.999999 3.000000
v 3.000000 0.999999 1.000000
v 1.000000 1.000000 4.000000
v 4.000000 0.999999 1.000000
v 4.000000 0.999999 -0.000000
v 3.000000 0.999999 -0.000000
v 4.000000 0.999999 3.000000
v 3.000000 1.500000 4.000000
v 0.000000 1.500000 -0.000000
v 1.000000 1.500000 1.000000
v 0.000000 1.500000 3.000000
v 1.000000 1.500000 -0.000000
v 3.000000 1.500000 3.000000
v 4.000000 1.499999 1.000000
v 4.000000 1.499999 4.000000
v 0.000000 1.500000 1.000000
v 1.000000 1.500000 3.000000
v 0.000000 1.500001 4.000000
v 3.000000 1.499999 1.000000
v 1.000000 1.500000 4.000000
v 4.000000 1.499999 -0.000000
v 3.000000 1.499999 -0.000000
v 4.000000 1.499999 3.000000
v 4.000000 0.499999 4.000000
v 0.000000 0.500000 1.000000
v 1.000000 0.500000 3.000000
v 0.000000 0.500001 4.000000
v 3.000000 0.499999 1.000000
v 1.000000 0.500000 4.000000
v 4.000000 0.499999 -0.000000
v 3.000000 0.499999 -0.000000
v 4.000000 0.499999 3.000000
v 3.000000 0.500000 4.000000
v 0.000000 0.500000 -0.000000
v 1.000000 0.500000 1.000000
v 0.000000 0.500000 3.000000
v 1.000000 0.500000 -0.000000
v 3.000000 0.499999 3.000000
v 4.000000 0.499999 1.000000
v 2.000000 -0.000001 1.000000
v 2.000000 -0.000000 3.000000
v 2.000000 -0.000001 0.000000
v 2.000000 -0.000000 4.000000
v 2.000001 2.000000 1.000000
v 2.000001 2.000000 3.000000
v 2.000001 1.999999 -0.000000
v 2.000001 2.000000 4.000000
v 2.000000 1.000000 4.000000
v 2.000000 0.999999 -0.000000
v 2.000000 1.500000 4.000000
v 2.000000 1.499999 -0.000000
v 2.000000 0.499999 -0.000000
v 2.000000 0.500000 4.000000
v 1.000000 -0.000000 2.000000
v 3.000000 -0.000001 2.000000
v 1.000001 2.000000 2.000000
v 3.000001 1.999999 2.000000
v 3.000000 0.999999 2.000000
v 1.000000 1.000000 2.000000
v 3.000000 1.499999 2.000000
v 1.000000 1.500000 2.000000
v 1.000000 0.500000 2.000000
v 3.000000 0.499999 2.000000
v 2.000001 2.000000 2.000000
v 2.000000 -0.000000 2.000000
v 1.000000 -0.000000 1.500000
v 2.500000 -0.000001 1.000000
v 3.000000 -0.000001 2.500000
v 1.500000 -0.000000 3.000000
v 2.500000 -0.000001 0.000000
v 1.000000 -0.000000 0.500000
v 3.000000 -0.000001 0.500000
v 0.000000 0.000000 0.500000
v 0.500000 -0.000000 1.000000
v 0.500000 -0.000000 0.000000
v 4.000000 -0.000001 0.500000
v 3.500000 -0.000001 0.000000
v 3.500000 -0.000001 1.000000
v 1.500000 0.000000 4.000000
v 3.000000 -0.000000 3.500000
v 1.000000 0.000000 3.500000
v 0.000000 0.000001 3.500000
v 0.500000 0.000000 4.000000
v 0.500000 0.000000 3.000000
v 4.000000 -0.000001 3.500000
v 3.500000 -0.000001 3.000000
v 3.500000 -0.000001 4.000000
v 1.000001 2.000000 1.500000
v 2.500001 1.999999 1.000000
v 3.000001 1.999999 2.500000
v 1.500001 2.000000 3.000000
v 2.500001 1.999999 -0.000000
v 1.000001 2.000000 0.500000
v 3.000001 1.999999 0.500000
v 0.000001 2.000000 0.500000
v 0.500001 2.000000 1.000000
v 0.500001 2.000000 -0.000000
v 4.000000 1.999999 0.500000
v 3.500001 1.999999 -0.000000
v 3.500001 1.999999 1.000000
v 1.500001 2.000000 4.000000
v 3.000001 2.000000 3.500000
v 1.000001 2.000000 3.500000
v 0.000001 2.000000 3.500000
v 0.500001 2.000000 4.000000
v 0.500001 2.000000 3.000000
v 4.000000 1.999999 3.500000
v 3.500001 1.999999 3.000000
v 3.500001 1.999999 4.000000
v 3.000000 1.750000 4.000000
v 4.000000 0.249999 4.000000
v 0.000001 1.750000 -0.000000
v 0.000000 0.250000 1.000000
v 1.000001 1.750000 1.000000
v 1.000000 0.250000 3.000000
v 0.000001 1.750000 3.000000
v 0.000000 0.250001 4.000000
v 1.000001 1.750000 -0.000000
v 3.000000 1.750000 3.000000
v 3.000000 0.249999 1.000000
v 1.000000 0.250000 4.000000
v 4.000000 1.749999 1.000000
v 4.000000 0.249999 -0.000000
v 3.000000 0.249999 -0.000000
v 4.000000 0.249999 3.000000
v 3.000000 0.750000 4.000000
v 4.000000 1.249999 4.000000
v 0.000000 0.750000 -0.000000
v 0.000000 1.250000 1.000000
v 1.000000 0.750000 1.000000
v 1.000000 1.250000 3.000000
v 0.000000 0.750000 3.000000
v 0.000000 1.250001 4.000000
v 1.000000 0.750000 -0.000000
v 3.000000 0.749999 3.000000
v 3.000000 1.249999 1.000000
v 1.000000 1.250000 4.000000
v 4.000000 0.749999 1.000000
v 4.000000 1.249999 -0.000000
v 3.000000 1.249999 -0.000000
v 4.000000 1.249999 3.000000
v 2.500000 1.000000 4.000000
v 3.500000 0.999999 3.000000
v 3.500000 0.999999 1.000000
v 4.000000 0.999999 3.500000
v 1.500000 1.000000 -0.000000
v 3.500000 0.999999 -0.000000
v 0.500000 1.000000 3.000000
v 4.000000 0.999999 0.500000
v 0.500000 1.000000 4.000000
v 3.000000 0.999999 1.500000
v 0.500000 1.000000 -0.000000
v 0.000000 1.000000 3.500000
v 0.500000 1.000000 1.000000
v 1.000000 1.000000 2.500000
v 0.000000 1.000000 0.500000
v 3.500000 0.999999 4.000000
v 3.000000 1.250000 4.000000
v 0.000000 1.250000 -0.000000
v 1.000000 1.250000 1.000000
v 0.000000 1.250000 3.000000
v 1.000000 1.250000 -0.000000
v 3.000000 1.250000 3.000000
v 4.000000 1.249999 1.000000
v 4.000000 1.749999 4.000000
v 0.000001 1.750000 1.000000
v 1.000001 1.750000 3.000000
v 0.000001 1.750001 4.000000
v 3.000000 1.749999 1.000000
v 1.000001 1.750000 4.000000
v 4.000000 1.749999 -0.000000
v 3.000000 1.749999 -0.000000
v 4.000000 1.749999 3.000000
v 2.500000 1.500000 4.000000
v 3.500000 1.499999 3.000000
v 3.500000 1.499999 1.000000
v 4.000000 1.499999 3.500000
v 1.500000 1.500000 -0.000000
v 3.500000 1.499999 -0.000000
v 0.500000 1.500000 3.000000
v 4.000000 1.499999 0.500000
v 0.500000 1.500000 4.000000
v 3.000000 1.499999 1.500000
v 0.500000 1.500000 -0.000000
v 0.000000 1.500000 3.500000
v 0.500000 1.500000 1.000000
v 1.000000 1.500000 2.500000
v 0.000000 1.500000 0.500000
v 3.500000 1.499999 4.000000
v 4.000000 0.749999 4.000000
v 0.000000 0.750000 1.000000
v 1.000000 0.750000 3.000000
v 0.000000 0.750001 4.000000
v 3.000000 0.749999 1.000000
v 1.000000 0.750000 4.000000
v 4.000000 0.749999 -0.000000
v 3.000000 0.749999 -0.000000
v 4.000000 0.749999 3.000000
v 3.000000 0.250000 4.000000
v 0.000000 0.250000 -0.000000
v 1.000000 0.250000 1.000000
v 0.000000 0.250000 3.000000
v 1.000000 0.250000 -0.000000
v 3.000000 0.249999 3.000000
v 4.000000 0.249999 1.000000
v 3.500000 0.499999 4.000000
v 0.000000 0.500000 0.500000
v 1.000000 0.500000 2.500000
v 0.500000 0.500000 1.000000
v 0.000000 0.500001 3.500000
v 0.500000 0.500000 -0.000000
v 3.000000 0.499999 1.500000
v 0.500000 0.500000 4.000000
v 4.000000 0.499999 0.500000
v 0.500000 0.500000 3.000000
v 3.500000 0.499999 -0.000000
v 1.500000 0.500000 -0.000000
v 4.000000 0.499999 3.500000
v 3.500000 0.499999 1.000000
v 3.500000 0.499999 3.000000
v 2.500000 0.500000 4.000000
v 1.500000 -0.000000 1.000000
v 2.500000 -0.000000 3.000000
v 1.500000 -0.000000 0.000000
v 2.500000 -0.000000 4.000000
v 1.500001 2.000000 1.000000
v 2.500001 2.000000 3.000000
v 1.500001 2.000000 -0.000000
v 2.500001 2.000000 4.000000
v 1.500000 1.000000 4.000000
v 2.500000 0.999999 -0.000000
v 1.500000 1.500000 4.000000
v 2.500000 1.499999 -0.000000
v 2.500000 0.499999 -0.000000
v 1.500000 0.500000 4.000000
v 2.000000 0.250000 4.000000
v 2.000000 0.249999 -0.000000
v 2.000000 1.249999 -0.000000
v 2.000000 1.250000 4.000000
v 2.000000 0.749999 -0.000000
v 2.000000 0.750000 4.000000
v 2.000000 1.750000 4.000000
v 2.000000 1.749999 -0.000000
v 2.000001 2.000000 3.500000
v 2.000001 1.999999 0.500000
v 2.000001 2.000000 2.500000
v 2.000000 -0.000000 3.500000
v 2.000000 -0.000001 0.500000
v 2.000000 -0.000000 1.500000
v 1.000000 0.000000 2.500000
v 3.000000 -0.000001 1.500000
v 1.000001 2.000000 2.500000
v 3.000001 1.999999 1.500000
v 3.000000 0.999999 2.500000
v 1.000000 1.000000 1.500000
v 3.000000 1.499999 2.500000
v 1.000000 1.500000 1.500000
v 1.000000 0.500000 1.500000
v 3.000000 0.499999 2.500000
v 2.000001 2.000000 1.500000
v 2.000000 -0.000000 2.500000
v 1.500000 -0.000000 2.000000
v 1.500001 2.000000 2.000000
v 3.000000 0.249999 2.000000
v 1.000000 0.250000 2.000000
v 1.000000 1.250000 2.000000
v 3.000000 1.249999 2.000000
v 1.000000 0.750000 2.000000
v 3.000000 0.749999 2.000000
v 3.000000 1.749999 2.000000
v 1.000001 1.750000 2.000000
v 2.500001 2.000000 2.000000
v 2.500000 -0.000001 2.000000
v 2.500000 -0.000001 1.500000
v 2.500001 1.999999 1.500000
v 1.000001 1.750000 2.500000
v 3.000000 1.749999 1.500000
v 3.000000 0.749999 1.500000
v 1.000000 0.750000 2.500000
v 3.000000 1.249999 1.500000
v 1.000000 1.250000 2.500000
v 1.000000 0.250000 2.500000
v 3.000000 0.249999 1.500000
v 1.500001 2.000000 1.500000
v 1.500000 -0.000000 1.500000
v 1.500000 -0.000000 2.500000
v 2.500000 -0.000001 0.500000
v 1.500000 0.000000 3.500000
v 1.500001 2.000000 2.500000
v 2.500001 1.999999 0.500000
v 1.500001 2.000000 3.500000
v 1.500001 1.750000 -0.000000
v 2.500000 1.750000 4.000000
v 2.500000 0.750000 4.000000
v 1.500000 0.750000 -0.000000
v 2.500000 1.250000 4.000000
v 1.500000 1.250000 -0.000000
v 1.500000 0.250000 -0.000000
v 2.500000 0.250000 4.000000
v 1.500000 0.250000 4.000000
v 3.500000 0.249999 3.000000
v 3.500000 0.249999 1.000000
v 4.000000 0.249999 3.500000
v 2.500000 0.249999 -0.000000
v 3.500000 0.249999 -0.000000
v 0.500000 0.250000 3.000000
v 4.000000 0.249999 0.500000
v 0.500000 0.250000 4.000000
v 3.000000 0.249999 2.500000
v 0.500000 0.250000 -0.000000
v 0.000000 0.250001 3.500000
v 0.500000 0.250000 1.000000
v 1.000000 0.250000 1.500000
v 0.000000 0.250000 0.500000
v 3.500000 0.249999 4.000000
v 3.500000 1.249999 4.000000
v 0.000000 1.250000 0.500000
v 1.000000 1.250000 1.500000
v 0.500000 1.250000 1.000000
v 0.000000 1.250000 3.500000
v 0.500000 1.250000 -0.000000
v 3.000000 1.249999 2.500000
v 0.500000 1.250000 4.000000
v 4.000000 1.249999 0.500000
v 0.500000 1.250000 3.000000
v 3.500000 1.249999 -0.000000
v 2.500000 1.249999 -0.000000
v 4.000000 1.249999 3.500000
v 3.500000 1.249999 1.000000
v 3.500000 1.249999 3.000000
v 1.500000 1.250000 4.000000
v 3.500000 0.749999 4.000000
v 0.000000 0.750000 0.500000
v 1.000000 0.750000 1.500000
v 0.500000 0.750000 1.000000
v 0.000000 0.750001 3.500000
v 0.500000 0.750000 -0.000000
v 3.000000 0.749999 2.500000
v 0.500000 0.750000 4.000000
v 4.000000 0.749999 0.500000
v 0.500000 0.750000 3.000000
v 3.500000 0.749999 -0.000000
v 2.500000 0.749999 -0.000000
v 4.000000 0.749999 3.500000
v 3.500000 0.749999 1.000000
v 3.500000 0.749999 3.000000
v 1.500000 0.750000 4.000000
v 1.500001 1.750000 4.000000
v 3.500000 1.749999 3.000000
v 3.500000 1.749999 1.000000
v 4.000000 1.749999 3.500000
v 2.500000 1.749999 -0.000000
v 3.500000 1.749999 -0.000000
v 0.500001 1.750000 3.000000
v 4.000000 1.749999 0.500000
v 0.500001 1.750000 4.000000
v 3.000000 1.749999 2.500000
v 0.500001 1.750000 -0.000000
v 0.000001 1.750000 3.500000
v 0.500001 1.750000 1.000000
v 1.000001 1.750000 1.500000
v 0.000001 1.750000 0.500000
v 3.500000 1.749999 4.000000
v 3.500001 1.999999 3.500000
v 0.500001 2.000000 3.500000
v 2.500001 2.000000 3.500000
v 3.500001 1.999999 0.500000
v 0.500001 2.000000 0.500000
v 1.500001 2.000000 0.500000
v 2.500001 2.000000 2.500000
v 3.500000 -0.000001 3.500000
v 0.500000 0.000000 3.500000
v 2.500000 -0.000000 3.500000
v 3.500000 -0.000001 0.500000
v 0.500000 -0.000000 0.500000
v 1.500000 -0.000000 0.500000
v 2.500000 -0.000000 2.500000
vn 0.000000 1.000000 -0.000000
vn -0.000000 -1.000000 0.000000
vn -0.000000 0.000000 -1.000000
vn 1.000000 -0.000000 0.000000
vn 0.000000 0.000000 1.000000
vn -1.000000 0.000000 -0.000000
usemtl None
s off
f 418//1 264//1 4//1 109//1
f 417//1 265//1 5//1 112//1
f 416//1 114//1 7//1 115//1
f 415//1 117//1 10//1 118//1
f 414//1 266//1 12//1 121//1
f 413//1 123//1 14//1 124//1
f 412//1 126//1 15//1 127//1
f 411//2 131//2 20//2 268//2
f 410//2 134//2 21//2 269//2
f 409//2 137//2 23//2 136//2
f 408//2 140//2 26//2 139//2
f 407//2 143//2 28//2 270//2
f 406//2 146//2 30//2 145//2
f 405//2 149//2 31//2 148//2
f 404//3 151//3 28//3 150//3
f 403//4 153//4 24//4 136//4
f 402//4 155//4 17//4 129//4
f 401//3 207//3 23//3 137//3
f 400//4 157//4 29//4 145//4
f 399//5 159//5 21//5 138//5
f 398//6 160//6 20//6 131//6
f 397//3 209//3 30//3 146//3
f 396//6 163//6 25//6 139//6
f 395//5 208//5 19//5 147//5
f 394//5 212//5 26//5 140//5
f 393//5 213//5 22//5 133//5
f 392//6 206//6 32//6 148//6
f 391//3 210//3 18//3 141//3
f 390//5 214//5 31//5 149//5
f 389//3 211//3 27//3 142//3
f 388//3 236//3 44//3 271//3
f 387//5 239//5 48//5 184//5
f 386//3 235//3 43//3 185//3
f 385//6 231//6 34//6 186//6
f 384//5 238//5 47//5 272//5
f 383//5 237//5 46//5 188//5
f 382//5 233//5 38//5 189//5
f 381//6 179//6 45//6 190//6
f 380//3 234//3 40//3 191//3
f 379//6 176//6 42//6 295//6
f 378//5 175//5 41//5 193//5
f 377//4 173//4 39//4 194//4
f 376//3 232//3 36//3 195//3
f 375//4 171//4 37//4 296//4
f 374//4 169//4 35//4 197//4
f 373//3 167//3 33//3 198//3
f 372//3 178//3 61//3 273//3
f 371//5 182//5 64//5 216//5
f 370//3 177//3 60//3 217//3
f 369//6 168//6 56//6 218//6
f 368//5 181//5 63//5 274//5
f 367//5 180//5 62//5 220//5
f 366//5 172//5 58//5 221//5
f 365//6 205//6 55//6 222//6
f 364//3 174//3 59//3 223//3
f 363//6 204//6 54//6 297//6
f 362//5 203//5 53//5 225//5
f 361//4 202//4 52//4 226//4
f 360//3 170//3 57//3 227//3
f 359//4 201//4 51//4 298//4
f 358//4 200//4 50//4 229//4
f 357//3 199//3 49//3 230//3
f 356//3 240//3 74//3 247//3
f 355//4 241//4 75//4 248//4
f 354//4 242//4 76//4 299//4
f 353//3 154//3 66//3 250//3
f 352//4 243//4 77//4 251//4
f 351//5 244//5 78//5 252//5
f 350//6 245//6 79//6 300//6
f 349//3 158//3 68//3 254//3
f 348//6 246//6 80//6 255//6
f 347//5 156//5 67//5 256//5
f 346//5 164//5 71//5 257//5
f 345//5 165//5 72//5 275//5
f 344//6 152//6 65//6 259//6
f 343//3 161//3 69//3 260//3
f 342//5 166//5 73//5 261//5
f 341//3 162//3 70//3 276//3
f 340//3 277//3 94//3 262//3
f 339//5 278//5 93//5 258//5
f 338//5 279//5 92//5 219//5
f 337//3 280//3 91//3 215//3
f 336//5 281//5 90//5 187//5
f 335//3 282//3 89//3 183//3
f 334//3 283//3 88//3 270//3
f 333//5 284//5 87//5 269//5
f 332//2 285//2 88//2 142//2
f 331//2 286//2 87//2 133//2
f 330//2 287//2 86//2 132//2
f 329//1 120//1 84//1 288//1
f 328//1 111//1 83//1 289//1
f 327//1 110//1 82//1 302//1
f 326//1 303//1 106//1 290//1
f 325//2 301//2 105//2 304//2
f 324//6 305//6 104//6 253//6
f 323//4 306//4 103//4 249//4
f 322//4 307//4 102//4 228//4
f 321//6 308//6 101//6 224//6
f 320//4 309//4 100//4 196//4
f 319//6 310//6 99//6 192//6
f 318//6 311//6 98//6 294//6
f 317//4 312//4 97//4 293//4
f 316//2 294//2 98//2 313//2
f 315//1 314//1 96//1 292//1
f 108//1 315//1 292//1 2//1
f 81//1 290//1 315//1 108//1
f 290//1 106//1 314//1 315//1
f 301//2 316//2 313//2 105//2
f 85//2 130//2 316//2 301//2
f 130//2 18//2 294//2 316//2
f 208//4 317//4 293//4 19//4
f 58//4 228//4 317//4 208//4
f 228//4 102//4 312//4 317//4
f 210//6 318//6 294//6 18//6
f 60//6 224//6 318//6 210//6
f 224//6 101//6 311//6 318//6
f 235//6 319//6 192//6 43//6
f 69//6 253//6 319//6 235//6
f 253//6 104//6 310//6 319//6
f 233//4 320//4 196//4 38//4
f 67//4 249//4 320//4 233//4
f 249//4 103//4 309//4 320//4
f 177//6 321//6 224//6 60//6
f 43//6 192//6 321//6 177//6
f 192//6 99//6 308//6 321//6
f 172//4 322//4 228//4 58//4
f 38//4 196//4 322//4 172//4
f 196//4 100//4 307//4 322//4
f 156//4 323//4 249//4 67//4
f 3//4 291//4 323//4 156//4
f 291//4 95//4 306//4 323//4
f 161//6 324//6 253//6 69//6
f 2//6 292//6 324//6 161//6
f 292//6 96//6 305//6 324//6
f 129//2 325//2 304//2 97//2
f 17//2 267//2 325//2 129//2
f 267//2 85//2 301//2 325//2
f 263//1 326//1 290//1 81//1
f 1//1 107//1 326//1 263//1
f 107//1 95//1 303//1 326//1
f 303//1 327//1 302//1 106//1
f 95//1 291//1 327//1 303//1
f 291//1 3//1 110//1 327//1
f 108//1 328//1 289//1 81//1
f 2//1 113//1 328//1 108//1
f 113//1 6//1 111//1 328//1
f 110//1 329//1 288//1 82//1
f 3//1 122//1 329//1 110//1
f 122//1 11//1 120//1 329//1
f 293//2 330//2 132//2 19//2
f 97//2 304//2 330//2 293//2
f 304//2 105//2 287//2 330//2
f 135//2 331//2 133//2 22//2
f 18//2 130//2 331//2 135//2
f 130//2 85//2 286//2 331//2
f 144//2 332//2 142//2 27//2
f 19//2 132//2 332//2 144//2
f 132//2 86//2 285//2 332//2
f 159//5 333//5 269//5 21//5
f 53//5 219//5 333//5 159//5
f 219//5 92//5 284//5 333//5
f 151//3 334//3 270//3 28//3
f 49//3 215//3 334//3 151//3
f 215//3 91//3 283//3 334//3
f 167//3 335//3 183//3 33//3
f 74//3 262//3 335//3 167//3
f 262//3 94//3 282//3 335//3
f 175//5 336//5 187//5 41//5
f 78//5 258//5 336//5 175//5
f 258//5 93//5 281//5 336//5
f 199//3 337//3 215//3 49//3
f 33//3 183//3 337//3 199//3
f 183//3 89//3 280//3 337//3
f 203//5 338//5 219//5 53//5
f 41//5 187//5 338//5 203//5
f 187//5 90//5 279//5 338//5
f 244//5 339//5 258//5 78//5
f 5//5 265//5 339//5 244//5
f 265//5 83//5 278//5 339//5
f 240//3 340//3 262//3 74//3
f 12//3 266//3 340//3 240//3
f 266//3 84//3 277//3 340//3
f 277//3 341//3 276//3 94//3
f 84//3 120//3 341//3 277//3
f 120//3 11//3 162//3 341//3
f 245//5 342//5 261//5 79//5
f 4//5 127//5 342//5 245//5
f 127//5 15//5 166//5 342//5
f 246//3 343//3 260//3 80//3
f 9//3 119//3 343//3 246//3
f 119//3 2//3 161//3 343//3
f 166//6 344//6 259//6 73//6
f 15//6 126//6 344//6 166//6
f 126//6 16//6 152//6 344//6
f 278//5 345//5 275//5 93//5
f 83//5 111//5 345//5 278//5
f 111//5 6//5 165//5 345//5
f 165//5 346//5 257//5 72//5
f 6//5 118//5 346//5 165//5
f 118//5 10//5 164//5 346//5
f 243//5 347//5 256//5 77//5
f 13//5 125//5 347//5 243//5
f 125//5 3//5 156//5 347//5
f 164//6 348//6 255//6 71//6
f 10//6 117//6 348//6 164//6
f 117//6 9//6 246//6 348//6
f 162//3 349//3 254//3 70//3
f 11//3 124//3 349//3 162//3
f 124//3 14//3 158//3 349//3
f 305//6 350//6 300//6 104//6
f 96//6 109//6 350//6 305//6
f 109//6 4//6 245//6 350//6
f 241//5 351//5 252//5 75//5
f 8//5 116//5 351//5 241//5
f 116//5 5//5 244//5 351//5
f 158//4 352//4 251//4 68//4
f 14//4 123//4 352//4 158//4
f 123//4 13//4 243//4 352//4
f 242//3 353//3 250//3 76//3
f 1//3 115//3 353//3 242//3
f 115//3 7//3 154//3 353//3
f 306//4 354//4 299//4 103//4
f 95//4 107//4 354//4 306//4
f 107//4 1//4 242//4 354//4
f 154//4 355//4 248//4 66//4
f 7//4 114//4 355//4 154//4
f 114//4 8//4 241//4 355//4
f 152//3 356//3 247//3 65//3
f 16//3 128//3 356//3 152//3
f 128//3 12//3 240//3 356//3
f 168//3 357//3 230//3 56//3
f 34//3 198//3 357//3 168//3
f 198//3 33//3 199//3 357//3
f 170//4 358//4 229//4 57//4
f 36//4 197//4 358//4 170//4
f 197//4 35//4 200//4 358//4
f 307//4 359//4 298//4 102//4
f 100//4 296//4 359//4 307//4
f 296//4 37//4 201//4 359//4
f 201//3 360//3 227//3 51//3
f 37//3 195//3 360//3 201//3
f 195//3 36//3 170//3 360//3
f 174//4 361//4 226//4 59//4
f 40//4 194//4 361//4 174//4
f 194//4 39//4 202//4 361//4
f 200//5 362//5 225//5 50//5
f 35//5 193//5 362//5 200//5
f 193//5 41//5 203//5 362//5
f 308//6 363//6 297//6 101//6
f 99//6 295//6 363//6 308//6
f 295//6 42//6 204//6 363//6
f 178//3 364//3 223//3 61//3
f 44//3 191//3 364//3 178//3
f 191//3 40//3 174//3 364//3
f 180//6 365//6 222//6 62//6
f 46//6 190//6 365//6 180//6
f 190//6 45//6 205//6 365//6
f 202//5 366//5 221//5 52//5
f 39//5 189//5 366//5 202//5
f 189//5 38//5 172//5 366//5
f 181//5 367//5 220//5 63//5
f 47//5 188//5 367//5 181//5
f 188//5 46//5 180//5 367//5
f 279//5 368//5 274//5 92//5
f 90//5 272//5 368//5 279//5
f 272//5 47//5 181//5 368//5
f 182//6 369//6 218//6 64//6
f 48//6 186//6 369//6 182//6
f 186//6 34//6 168//6 369//6
f 205//3 370//3 217//3 55//3
f 45//3 185//3 370//3 205//3
f 185//3 43//3 177//3 370//3
f 204//5 371//5 216//5 54//5
f 42//5 184//5 371//5 204//5
f 184//5 48//5 182//5 371//5
f 280//3 372//3 273//3 91//3
f 89//3 271//3 372//3 280//3
f 271//3 44//3 178//3 372//3
f 231//3 373//3 198//3 34//3
f 65//3 247//3 373//3 231//3
f 247//3 74//3 167//3 373//3
f 232//4 374//4 197//4 36//4
f 66//4 248//4 374//4 232//4
f 248//4 75//4 169//4 374//4
f 309//4 375//4 296//4 100//4
f 103//4 299//4 375//4 309//4
f 299//4 76//4 171//4 375//4
f 171//3 376//3 195//3 37//3
f 76//3 250//3 376//3 171//3
f 250//3 66//3 232//3 376//3
f 234//4 377//4 194//4 40//4
f 68//4 251//4 377//4 234//4
f 251//4 77//4 173//4 377//4
f 169//5 378//5 193//5 35//5
f 75//5 252//5 378//5 169//5
f 252//5 78//5 175//5 378//5
f 310//6 379//6 295//6 99//6
f 104//6 300//6 379//6 310//6
f 300//6 79//6 176//6 379//6
f 236//3 380//3 191//3 44//3
f 70//3 254//3 380//3 236//3
f 254//3 68//3 234//3 380//3
f 237//6 381//6 190//6 46//6
f 71//6 255//6 381//6 237//6
f 255//6 80//6 179//6 381//6
f 173//5 382//5 189//5 39//5
f 77//5 256//5 382//5 173//5
f 256//5 67//5 233//5 382//5
f 238//5 383//5 188//5 47//5
f 72//5 257//5 383//5 238//5
f 257//5 71//5 237//5 383//5
f 281//5 384//5 272//5 90//5
f 93//5 275//5 384//5 281//5
f 275//5 72//5 238//5 384//5
f 239//6 385//6 186//6 48//6
f 73//6 259//6 385//6 239//6
f 259//6 65//6 231//6 385//6
f 179//3 386//3 185//3 45//3
f 80//3 260//3 386//3 179//3
f 260//3 69//3 235//3 386//3
f 176//5 387//5 184//5 42//5
f 79//5 261//5 387//5 176//5
f 261//5 73//5 239//5 387//5
f 282//3 388//3 271//3 89//3
f 94//3 276//3 388//3 282//3
f 276//3 70//3 236//3 388//3
f 283//3 389//3 142//3 88//3
f 91//3 273//3 389//3 283//3
f 273//3 61//3 211//3 389//3
f 160//5 390//5 149//5 20//5
f 54//5 216//5 390//5 160//5
f 216//5 64//5 214//5 390//5
f 163//3 391//3 141//3 25//3
f 55//3 217//3 391//3 163//3
f 217//3 60//3 210//3 391//3
f 214//6 392//6 148//6 31//6
f 64//6 218//6 392//6 214//6
f 218//6 56//6 206//6 392//6
f 284//5 393//5 133//5 87//5
f 92//5 274//5 393//5 284//5
f 274//5 63//5 213//5 393//5
f 213//5 394//5 140//5 22//5
f 63//5 220//5 394//5 213//5
f 220//5 62//5 212//5 394//5
f 157//5 395//5 147//5 29//5
f 52//5 221//5 395//5 157//5
f 221//5 58//5 208//5 395//5
f 212//6 396//6 139//6 26//6
f 62//6 222//6 396//6 212//6
f 222//6 55//6 163//6 396//6
f 211//3 397//3 146//3 27//3
f 61//3 223//3 397//3 211//3
f 223//3 59//3 209//3 397//3
f 311//6 398//6 131//6 98//6
f 101//6 297//6 398//6 311//6
f 297//6 54//6 160//6 398//6
f 153//5 399//5 138//5 24//5
f 50//5 225//5 399//5 153//5
f 225//5 53//5 159//5 399//5
f 209//4 400//4 145//4 30//4
f 59//4 226//4 400//4 209//4
f 226//4 52//4 157//4 400//4
f 155//3 401//3 137//3 17//3
f 51//3 227//3 401//3 155//3
f 227//3 57//3 207//3 401//3
f 312//4 402//4 129//4 97//4
f 102//4 298//4 402//4 312//4
f 298//4 51//4 155//4 402//4
f 207//4 403//4 136//4 23//4
f 57//4 229//4 403//4 207//4
f 229//4 50//4 153//4 403//4
f 206//3 404//3 150//3 32//3
f 56//3 230//3 404//3 206//3
f 230//3 49//3 151//3 404//3
f 150//2 405//2 148//2 32//2
f 28//2 143//2 405//2 150//2
f 143//2 20//2 149//2 405//2
f 147//2 406//2 145//2 29//2
f 19//2 144//2 406//2 147//2
f 144//2 27//2 146//2 406//2
f 285//2 407//2 270//2 88//2
f 86//2 268//2 407//2 285//2
f 268//2 20//2 143//2 407//2
f 141//2 408//2 139//2 25//2
f 18//2 135//2 408//2 141//2
f 135//2 22//2 140//2 408//2
f 138//2 409//2 136//2 24//2
f 21//2 134//2 409//2 138//2
f 134//2 17//2 137//2 409//2
f 286//2 410//2 269//2 87//2
f 85//2 267//2 410//2 286//2
f 267//2 17//2 134//2 410//2
f 287//2 411//2 268//2 86//2
f 105//2 313//2 411//2 287//2
f 313//2 98//2 131//2 411//2
f 121//1 412//1 127//1 4//1
f 12//1 128//1 412//1 121//1
f 128//1 16//1 126//1 412//1
f 122//1 413//1 124//1 11//1
f 3//1 125//1 413//1 122//1
f 125//1 13//1 123//1 413//1
f 264//1 414//1 121//1 4//1
f 82//1 288//1 414//1 264//1
f 288//1 84//1 266//1 414//1
f 113//1 415//1 118//1 6//1
f 2//1 119//1 415//1 113//1
f 119//1 9//1 117//1 415//1
f 112//1 416//1 115//1 1//1
f 5//1 116//1 416//1 112//1
f 116//1 8//1 114//1 416//1
f 263//1 417//1 112//1 1//1
f 81//1 289//1 417//1 263//1
f 289//1 83//1 265//1 417//1
f 314//1 418//1 109//1 96//1
f 106//1 302//1 418//1 314//1
f 302//1 82//1 264//1 418//1
