# Blender v2.76 (sub 0) OBJ File: ''
# www.blender.org
mtllib hShape.mtl
o Plane
v -1.000000 0.000000 1.000000
v 1.000000 0.000000 1.000000
v -1.000000 0.000000 -1.000000
v 1.000000 0.000000 -1.000000
v -1.000000 0.000000 2.000000
v 1.000000 0.000000 2.000000
v -2.000000 0.000000 1.000000
v -2.000000 0.000000 2.000000
v 2.000000 0.000000 1.000000
v 2.000000 0.000000 2.000000
v -1.000000 0.000000 -2.000000
v 1.000000 0.000000 -2.000000
v -2.000000 0.000000 -1.000000
v -2.000000 0.000000 -2.000000
v 2.000000 0.000000 -1.000000
v 2.000000 0.000000 -2.000000
v -1.000000 2.000000 1.000000
v 1.000000 2.000000 1.000000
v -1.000000 2.000000 -1.000000
v 1.000000 2.000000 -1.000000
v -1.000000 2.000000 2.000000
v 1.000000 2.000000 2.000000
v -2.000000 2.000000 1.000000
v -2.000000 2.000000 2.000000
v 2.000000 2.000000 1.000000
v 2.000000 2.000000 2.000000
v -1.000000 2.000000 -2.000000
v 1.000000 2.000000 -2.000000
v -2.000000 2.000000 -1.000000
v -2.000000 2.000000 -2.000000
v 2.000000 2.000000 -1.000000
v 2.000000 2.000000 -2.000000
v 1.000000 1.000000 -2.000000
v 2.000000 1.000000 -2.000000
v -2.000000 1.000000 2.000000
v -2.000000 1.000000 1.000000
v -1.000000 1.000000 1.000000
v -1.000000 1.000000 -1.000000
v -2.000000 1.000000 -1.000000
v -2.000000 1.000000 -2.000000
v -1.000000 1.000000 2.000000
v 1.000000 1.000000 -1.000000
v 1.000000 1.000000 1.000000
v -1.000000 1.000000 -2.000000
v 2.000000 1.000000 1.000000
v 2.000000 1.000000 2.000000
v 1.000000 1.000000 2.000000
v 2.000000 1.000000 -1.000000
v 1.000000 1.500000 -2.000000
v -2.000000 1.500000 2.000000
v -1.000000 1.500000 1.000000
v -2.000000 1.500000 -1.000000
v -1.000000 1.500000 2.000000
v 1.000000 1.500000 -1.000000
v 2.000000 1.500000 1.000000
v 2.000000 1.500000 -2.000000
v -2.000000 1.500000 1.000000
v -1.000000 1.500000 -1.000000
v -2.000000 1.500000 -2.000000
v 1.000000 1.500000 1.000000
v -1.000000 1.500000 -2.000000
v 2.000000 1.500000 2.000000
v 1.000000 1.500000 2.000000
v 2.000000 1.500000 -1.000000
v 2.000000 0.500000 -2.000000
v -2.000000 0.500000 1.000000
v -1.000000 0.500000 -1.000000
v -2.000000 0.500000 -2.000000
v 1.000000 0.500000 1.000000
v -1.000000 0.500000 -2.000000
v 2.000000 0.500000 2.000000
v 1.000000 0.500000 2.000000
v 2.000000 0.500000 -1.000000
v 1.000000 0.500000 -2.000000
v -2.000000 0.500000 2.000000
v -1.000000 0.500000 1.000000
v -2.000000 0.500000 -1.000000
v -1.000000 0.500000 2.000000
v 1.000000 0.500000 -1.000000
v 2.000000 0.500000 1.000000
v 0.000000 0.000000 1.000000
v 0.000000 0.000000 -1.000000
v 0.000000 0.000000 2.000000
v 0.000000 0.000000 -2.000000
v 0.000000 2.000000 1.000000
v 0.000000 2.000000 -1.000000
v 0.000000 2.000000 2.000000
v 0.000000 2.000000 -2.000000
v 0.000000 1.000000 -2.000000
v 0.000000 1.000000 2.000000
v 0.000000 1.500000 -2.000000
v 0.000000 1.500000 2.000000
v 0.000000 0.500000 2.000000
v 0.000000 0.500000 -2.000000
v -1.000000 0.000000 0.000000
v 1.000000 0.000000 0.000000
v -1.000000 2.000000 0.000000
v 1.000000 2.000000 0.000000
v 1.000000 1.000000 0.000000
v -1.000000 1.000000 0.000000
v 1.000000 1.500000 0.000000
v -1.000000 1.500000 0.000000
v -1.000000 0.500000 0.000000
v 1.000000 0.500000 0.000000
v 0.000000 2.000000 0.000000
v 0.000000 0.000000 0.000000
vn 0.000000 -1.000000 0.000000
vn 0.000000 1.000000 0.000000
vn 0.000000 0.000000 -1.000000
vn -1.000000 0.000000 0.000000
vn 0.000000 0.000000 1.000000
vn 1.000000 0.000000 0.000000
usemtl None
s off
f 106//1 82//1 4//1 96//1
f 81//1 83//1 5//1 1//1
f 5//1 8//1 7//1 1//1
f 2//1 9//1 10//1 6//1
f 82//1 84//1 12//1 4//1
f 3//1 13//1 14//1 11//1
f 12//1 16//1 15//1 4//1
f 105//2 98//2 20//2 86//2
f 85//2 17//2 21//2 87//2
f 21//2 17//2 23//2 24//2
f 18//2 22//2 26//2 25//2
f 86//2 20//2 28//2 88//2
f 19//2 27//2 30//2 29//2
f 28//2 20//2 31//2 32//2
f 56//3 49//3 28//3 32//3
f 57//4 50//4 24//4 23//4
f 102//4 51//4 17//4 97//4
f 51//3 57//3 23//3 17//3
f 59//4 52//4 29//4 30//4
f 50//5 53//5 21//5 24//5
f 101//6 54//6 20//6 98//6
f 61//3 59//3 30//3 27//3
f 62//6 55//6 25//6 26//6
f 52//5 58//5 19//5 29//5
f 63//5 62//5 26//5 22//5
f 92//5 63//5 22//5 87//5
f 64//6 56//6 32//6 31//6
f 55//3 60//3 18//3 25//3
f 54//5 64//5 31//5 20//5
f 91//3 61//3 27//3 88//3
f 94//3 70//3 44//3 89//3
f 79//5 73//5 48//5 42//5
f 80//3 69//3 43//3 45//3
f 73//6 65//6 34//6 48//6
f 93//5 72//5 47//5 90//5
f 72//5 71//5 46//5 47//5
f 77//5 67//5 38//5 39//5
f 71//6 80//6 45//6 46//6
f 70//3 68//3 40//3 44//3
f 104//6 79//6 42//6 99//6
f 75//5 78//5 41//5 35//5
f 68//4 77//4 39//4 40//4
f 76//3 66//3 36//3 37//3
f 103//4 76//4 37//4 100//4
f 66//4 75//4 35//4 36//4
f 65//3 74//3 33//3 34//3
f 89//3 44//3 61//3 91//3
f 42//5 48//5 64//5 54//5
f 45//3 43//3 60//3 55//3
f 48//6 34//6 56//6 64//6
f 90//5 47//5 63//5 92//5
f 47//5 46//5 62//5 63//5
f 39//5 38//5 58//5 52//5
f 46//6 45//6 55//6 62//6
f 44//3 40//3 59//3 61//3
f 99//6 42//6 54//6 101//6
f 35//5 41//5 53//5 50//5
f 40//4 39//4 52//4 59//4
f 37//3 36//3 57//3 51//3
f 100//4 37//4 51//4 102//4
f 36//4 35//4 50//4 57//4
f 34//3 33//3 49//3 56//3
f 16//3 12//3 74//3 65//3
f 7//4 8//4 75//4 66//4
f 95//4 1//4 76//4 103//4
f 1//3 7//3 66//3 76//3
f 14//4 13//4 77//4 68//4
f 8//5 5//5 78//5 75//5
f 96//6 4//6 79//6 104//6
f 11//3 14//3 68//3 70//3
f 10//6 9//6 80//6 71//6
f 13//5 3//5 67//5 77//5
f 6//5 10//5 71//5 72//5
f 83//5 6//5 72//5 93//5
f 15//6 16//6 65//6 73//6
f 9//3 2//3 69//3 80//3
f 4//5 15//5 73//5 79//5
f 84//3 11//3 70//3 94//3
f 12//3 84//3 94//3 74//3
f 5//5 83//5 93//5 78//5
f 41//5 90//5 92//5 53//5
f 33//3 89//3 91//3 49//3
f 78//5 93//5 90//5 41//5
f 74//3 94//3 89//3 33//3
f 49//3 91//3 88//3 28//3
f 53//5 92//5 87//5 21//5
f 19//2 86//2 88//2 27//2
f 18//2 85//2 87//2 22//2
f 97//2 105//2 86//2 19//2
f 3//1 11//1 84//1 82//1
f 2//1 6//1 83//1 81//1
f 95//1 3//1 82//1 106//1
f 1//1 95//1 106//1 81//1
f 17//2 85//2 105//2 97//2
f 2//6 96//6 104//6 69//6
f 3//4 95//4 103//4 67//4
f 38//4 100//4 102//4 58//4
f 43//6 99//6 101//6 60//6
f 67//4 103//4 100//4 38//4
f 69//6 104//6 99//6 43//6
f 60//6 101//6 98//6 18//6
f 58//4 102//4 97//4 19//4
f 85//2 18//2 98//2 105//2
f 81//1 106//1 96//1 2//1
