# Blender v2.76 (sub 0) OBJ File: ''
# www.blender.org
mtllib sphere.mtl
o Sphere
v -0.382683 0.923880 0.000000
v -0.707107 0.707107 0.000000
v -0.923880 0.382683 0.000000
v -1.000000 -0.000000 0.000000
v -0.923880 -0.382684 0.000000
v -0.707107 -0.707107 0.000000
v -0.382683 -0.923880 0.000000
v -0.270598 0.923880 -0.270598
v -0.500000 0.707107 -0.500000
v -0.653282 0.382683 -0.653281
v -0.707107 -0.000000 -0.707107
v -0.653282 -0.382684 -0.653281
v -0.500000 -0.707107 -0.500000
v -0.270598 -0.923880 -0.270598
v -0.000000 0.923880 -0.382683
v -0.000000 0.707107 -0.707107
v -0.000000 0.382683 -0.923879
v -0.000000 -0.000000 -1.000000
v -0.000000 -0.382684 -0.923879
v -0.000000 -0.707107 -0.707107
v -0.000000 -0.923880 -0.382683
v -0.000000 1.000000 0.000000
v 0.270598 0.923880 -0.270598
v 0.500000 0.707107 -0.500000
v 0.653281 0.382683 -0.653281
v 0.707106 -0.000000 -0.707107
v 0.653281 -0.382684 -0.653281
v 0.500000 -0.707107 -0.500000
v 0.270598 -0.923880 -0.270598
v 0.382683 0.923880 -0.000000
v 0.707106 0.707107 -0.000000
v 0.923879 0.382683 -0.000000
v 1.000000 -0.000000 -0.000000
v 0.923879 -0.382684 -0.000000
v 0.707106 -0.707107 -0.000000
v 0.382683 -0.923880 -0.000000
v -0.000000 -1.000000 0.000000
v 0.270598 0.923880 0.270598
v 0.500000 0.707107 0.500000
v 0.653281 0.382683 0.653281
v 0.707106 -0.000000 0.707107
v 0.653281 -0.382684 0.653281
v 0.500000 -0.707107 0.500000
v 0.270598 -0.923880 0.270598
v -0.000000 0.923880 0.382683
v -0.000000 0.707107 0.707107
v -0.000000 0.382683 0.923879
v -0.000000 -0.000000 1.000000
v -0.000000 -0.382684 0.923879
v -0.000000 -0.707107 0.707107
v -0.000000 -0.923880 0.382683
v -0.270598 0.923880 0.270598
v -0.500000 0.707107 0.500000
v -0.653281 0.382683 0.653281
v -0.707107 -0.000000 0.707107
v -0.653281 -0.382684 0.653281
v -0.500000 -0.707107 0.500000
v -0.270598 -0.923880 0.270598
vn -0.786200 -0.525300 -0.325600
vn -0.908700 0.180700 -0.376400
vn -0.541400 0.810300 -0.224300
vn -0.541400 -0.810300 -0.224300
vn -0.908700 -0.180700 -0.376400
vn -0.786200 0.525300 -0.325600
vn -0.224300 -0.810300 -0.541400
vn -0.376400 -0.180700 -0.908700
vn -0.325600 0.525300 -0.786200
vn -0.325600 -0.525300 -0.786200
vn -0.376400 0.180700 -0.908700
vn -0.224300 0.810300 -0.541400
vn 0.325600 0.525300 -0.786200
vn 0.325600 -0.525300 -0.786200
vn 0.376400 0.180700 -0.908700
vn 0.224300 0.810300 -0.541400
vn 0.224300 -0.810300 -0.541400
vn 0.376400 -0.180700 -0.908700
vn 0.786200 -0.525300 -0.325600
vn 0.908700 0.180700 -0.376400
vn 0.541400 0.810300 -0.224300
vn 0.541400 -0.810300 -0.224300
vn 0.908700 -0.180700 -0.376400
vn 0.786200 0.525300 -0.325600
vn 0.541400 0.810300 0.224300
vn 0.541400 -0.810300 0.224300
vn 0.908700 -0.180700 0.376400
vn 0.786200 0.525300 0.325600
vn 0.786200 -0.525300 0.325600
vn 0.908700 0.180700 0.376400
vn 0.224300 -0.810300 0.541400
vn 0.376400 -0.180700 0.908700
vn 0.325600 0.525300 0.786200
vn 0.325600 -0.525300 0.786200
vn 0.376400 0.180700 0.908700
vn 0.224300 0.810300 0.541400
vn -0.325600 -0.525300 0.786200
vn -0.376400 0.180700 0.908700
vn -0.224300 0.810300 0.541400
vn -0.224300 -0.810300 0.541400
vn -0.376400 -0.180700 0.908700
vn -0.325600 0.525300 0.786200
vn -0.194500 0.977600 -0.080500
vn -0.194500 -0.977600 -0.080500
vn -0.080500 0.977600 -0.194500
vn -0.080500 -0.977600 -0.194500
vn 0.080500 0.977600 -0.194500
vn 0.080500 -0.977600 -0.194500
vn 0.194500 -0.977600 -0.080500
vn 0.194500 0.977600 -0.080500
vn 0.194500 0.977600 0.080500
vn 0.194500 -0.977600 0.080500
vn 0.080500 0.977600 0.194500
vn 0.080500 -0.977600 0.194500
vn -0.080500 0.977600 0.194500
vn -0.080500 -0.977600 0.194500
vn -0.786200 -0.525300 0.325600
vn -0.908700 0.180700 0.376400
vn -0.541400 0.810300 0.224300
vn -0.541400 -0.810300 0.224300
vn -0.908700 -0.180700 0.376400
vn -0.786200 0.525300 0.325600
vn -0.194500 0.977600 0.080500
vn -0.194500 -0.977600 0.080500
usemtl None
s off
f 6//1 5//1 12//1 13//1
f 4//2 3//2 10//2 11//2
f 2//3 1//3 8//3 9//3
f 7//4 6//4 13//4 14//4
f 5//5 4//5 11//5 12//5
f 3//6 2//6 9//6 10//6
f 14//7 13//7 20//7 21//7
f 12//8 11//8 18//8 19//8
f 10//9 9//9 16//9 17//9
f 13//10 12//10 19//10 20//10
f 11//11 10//11 17//11 18//11
f 9//12 8//12 15//12 16//12
f 17//13 16//13 24//13 25//13
f 20//14 19//14 27//14 28//14
f 18//15 17//15 25//15 26//15
f 16//16 15//16 23//16 24//16
f 21//17 20//17 28//17 29//17
f 19//18 18//18 26//18 27//18
f 28//19 27//19 34//19 35//19
f 26//20 25//20 32//20 33//20
f 24//21 23//21 30//21 31//21
f 29//22 28//22 35//22 36//22
f 27//23 26//23 33//23 34//23
f 25//24 24//24 31//24 32//24
f 31//25 30//25 38//25 39//25
f 36//26 35//26 43//26 44//26
f 34//27 33//27 41//27 42//27
f 32//28 31//28 39//28 40//28
f 35//29 34//29 42//29 43//29
f 33//30 32//30 40//30 41//30
f 44//31 43//31 50//31 51//31
f 42//32 41//32 48//32 49//32
f 40//33 39//33 46//33 47//33
f 43//34 42//34 49//34 50//34
f 41//35 40//35 47//35 48//35
f 39//36 38//36 45//36 46//36
f 50//37 49//37 56//37 57//37
f 48//38 47//38 54//38 55//38
f 46//39 45//39 52//39 53//39
f 51//40 50//40 57//40 58//40
f 49//41 48//41 55//41 56//41
f 47//42 46//42 53//42 54//42
f 1//43 22//43 8//43
f 37//44 7//44 14//44
f 8//45 22//45 15//45
f 37//46 14//46 21//46
f 15//47 22//47 23//47
f 37//48 21//48 29//48
f 37//49 29//49 36//49
f 23//50 22//50 30//50
f 30//51 22//51 38//51
f 37//52 36//52 44//52
f 38//53 22//53 45//53
f 37//54 44//54 51//54
f 45//55 22//55 52//55
f 37//56 51//56 58//56
f 57//57 56//57 5//57 6//57
f 55//58 54//58 3//58 4//58
f 53//59 52//59 1//59 2//59
f 58//60 57//60 6//60 7//60
f 56//61 55//61 4//61 5//61
f 54//62 53//62 2//62 3//62
f 52//63 22//63 1//63
f 37//64 58//64 7//64
